<svg xmlns="http://www.w3.org/2000/svg" version="1.0" viewBox="0 0 700 875" preserveAspectRatio="xMidYMid meet" x="0px" y="0px"><g transform="translate(0.000000,700.000000) scale(0.100000,-0.100000)" fill="#000000" stroke="none"><path d="M3440 6579 c-68 -27 -119 -115 -105 -182 17 -83 84 -137 170 -137 87 0 154 61 162 148 11 119 -116 215 -227 171z"/><path d="M4133 6539 c-152 -28 -247 -191 -198 -340 22 -65 104 -153 153 -164 17 -3 34 -10 37 -15 3 -5 -21 -96 -54 -202 -106 -342 -224 -792 -290 -1108 -91 -430 -77 -414 63 75 107 376 183 674 242 950 31 143 57 266 60 273 2 7 22 12 51 12 144 0 268 146 249 293 -20 150 -163 253 -313 226z"/><path d="M2589 6515 c-56 -18 -133 -84 -160 -137 -78 -152 -5 -338 153 -394 26 -9 70 -14 113 -13 l70 2 8 -39 c37 -165 137 -547 192 -729 83 -273 226 -705 254 -765 21 -44 21 -44 15 -10 -28 172 -226 869 -354 1245 -113 333 -107 311 -80 320 34 11 109 84 133 130 32 60 31 183 -3 248 -62 122 -211 184 -341 142z"/><path d="M4965 6216 c-148 -66 -115 -292 47 -321 69 -13 157 35 184 102 58 138 -93 280 -231 219z"/><path d="M1822 6181 c-47 -30 -72 -77 -72 -135 0 -63 28 -108 84 -135 54 -27 81 -26 136 2 48 24 90 87 90 136 0 36 -36 103 -67 126 -40 29 -129 32 -171 6z"/><path d="M3413 6107 c-52 -19 -120 -73 -157 -124 -110 -150 -109 -377 3 -550 130 -202 305 -188 450 36 59 92 76 157 76 291 0 108 -2 119 -31 180 -35 74 -87 131 -144 160 -45 23 -144 26 -197 7z m163 -56 c43 -26 80 -77 94 -129 37 -140 -106 -281 -237 -231 -65 24 -122 109 -123 182 0 73 51 154 115 183 44 20 115 17 151 -5z"/><path d="M3455 6041 c-75 -33 -94 -138 -35 -201 23 -25 36 -30 72 -30 70 1 108 43 108 124 0 36 -6 52 -27 76 -30 33 -82 46 -118 31z m75 -56 c28 -34 7 -95 -33 -95 -48 0 -74 61 -41 94 20 20 58 21 74 1z"/><path d="M2127 5836 c-127 -47 -207 -187 -195 -340 14 -168 156 -336 341 -405 77 -28 189 -29 234 -1 89 54 135 224 102 382 -29 141 -136 286 -253 343 -68 33 -170 43 -229 21z m165 -85 c32 -20 53 -44 72 -82 102 -205 -138 -386 -299 -225 -23 24 -48 60 -55 81 -27 83 10 191 83 235 51 32 141 28 199 -9z"/><path d="M2080 5720 c-99 -106 33 -276 157 -200 47 28 62 84 38 146 -21 56 -62 84 -123 84 -36 0 -49 -6 -72 -30z m118 -32 c24 -31 23 -57 -2 -83 -30 -30 -49 -32 -76 -5 -24 24 -26 63 -4 84 19 19 68 21 82 4z"/><path d="M4610 5815 c-199 -56 -346 -282 -327 -503 13 -152 79 -221 213 -222 149 0 322 94 407 223 97 146 102 319 12 424 -65 76 -194 109 -305 78z m193 -59 c68 -28 115 -118 104 -198 -15 -110 -139 -197 -247 -173 -37 8 -95 56 -116 96 -7 15 -14 55 -14 87 0 51 5 67 33 108 55 82 156 116 240 80z"/><path d="M4694 5721 c-67 -41 -81 -137 -28 -193 23 -23 36 -28 73 -28 70 1 121 52 121 122 0 98 -85 149 -166 99z m106 -50 c15 -30 12 -56 -9 -75 -26 -24 -62 -17 -80 15 -13 24 -13 29 2 53 22 32 71 36 87 7z"/><path d="M1307 5794 c-61 -19 -128 -84 -152 -147 -40 -106 2 -231 99 -291 71 -44 165 -49 240 -12 143 70 182 255 78 376 -65 77 -168 105 -265 74z"/><path d="M5550 5791 c-72 -22 -139 -81 -166 -147 -18 -43 -18 -135 0 -177 l13 -33 -96 -81 c-282 -238 -540 -480 -764 -717 -232 -245 -434 -481 -391 -458 10 6 297 287 638 625 l618 614 43 -43 c78 -78 197 -94 291 -39 186 109 154 389 -50 450 -53 16 -96 18 -136 6z"/><path d="M1621 5413 c49 -73 830 -889 1082 -1131 77 -74 93 -86 69 -52 -186 259 -842 940 -1141 1185 l-25 20 15 -22z"/><path d="M3427 5139 c-9 -5 -27 -29 -40 -52 -33 -62 -31 -241 6 -387 29 -119 85 -280 97 -280 18 0 74 186 95 315 40 245 -2 416 -104 415 -20 0 -44 -5 -54 -11z"/><path d="M1375 5042 c-97 -33 -162 -101 -190 -195 -20 -67 -19 -106 4 -172 74 -210 349 -341 586 -280 165 43 225 141 179 296 -75 255 -358 427 -579 351z m141 -81 c55 -25 110 -92 124 -151 44 -183 -182 -303 -335 -178 -73 61 -97 166 -55 248 44 87 169 125 266 81z"/><path d="M1313 4911 c-41 -26 -53 -49 -53 -104 0 -76 58 -127 146 -127 39 0 51 5 80 34 28 28 34 42 34 76 0 76 -51 130 -129 137 -34 3 -54 -1 -78 -16z m102 -56 c30 -29 32 -58 5 -85 -43 -43 -114 -9 -108 53 2 22 11 35 28 44 36 18 48 16 75 -12z"/><path d="M2628 4959 c-29 -28 -30 -33 -25 -89 9 -107 102 -264 259 -438 36 -40 85 -89 108 -110 l43 -36 -7 49 c-41 297 -153 571 -259 635 -47 29 -83 26 -119 -11z"/><path d="M5421 4964 c-131 -35 -261 -144 -325 -275 -84 -171 -52 -279 101 -340 49 -20 77 -23 178 -24 100 0 131 4 187 23 215 74 341 254 293 418 -13 45 -28 69 -74 115 -48 47 -69 61 -125 78 -78 24 -158 26 -235 5z m275 -83 c54 -24 102 -84 110 -136 25 -168 -170 -299 -318 -212 -63 37 -92 86 -93 157 -1 149 164 253 301 191z"/><path d="M5585 4830 c-111 -73 -68 -230 62 -230 61 0 133 72 133 133 0 36 -23 81 -52 101 -32 22 -106 20 -143 -4z m120 -55 c14 -13 25 -31 25 -38 0 -27 -35 -59 -65 -59 -30 0 -65 32 -65 59 0 19 45 63 65 63 9 0 27 -11 40 -25z"/><path d="M4162 4903 c-82 -83 -165 -276 -207 -481 -28 -141 -24 -142 96 -22 216 218 319 403 279 500 -15 37 -37 50 -85 50 -30 0 -44 -8 -83 -47z"/><path d="M672 4759 c-56 -28 -109 -91 -127 -153 -19 -62 -19 -70 1 -135 51 -174 266 -230 395 -105 20 20 45 53 54 74 l18 39 226 -113 c246 -123 520 -252 756 -353 225 -97 538 -224 542 -219 12 11 -530 280 -852 424 -170 75 -413 174 -588 238 l-79 29 -2 60 c-4 97 -63 184 -148 219 -54 23 -144 20 -196 -5z"/><path d="M6228 4746 c-58 -16 -110 -55 -146 -109 -22 -33 -28 -54 -30 -116 -3 -68 -1 -82 25 -131 83 -157 277 -183 396 -51 34 38 67 119 67 166 0 48 -32 124 -70 167 -61 70 -154 98 -242 74z"/><path d="M2110 4440 c-87 -87 33 -236 300 -370 100 -50 260 -113 268 -106 8 9 -99 165 -182 263 -81 97 -177 182 -242 213 -53 26 -118 26 -144 0z"/><path d="M5800 4381 c-271 -94 -440 -161 -745 -293 -259 -112 -621 -285 -613 -293 20 -21 1353 529 1573 648 53 29 15 18 -215 -62z"/><path d="M4685 4388 c-77 -41 -300 -262 -374 -371 -29 -43 -51 -80 -48 -83 17 -17 359 132 463 203 142 97 198 200 139 258 -36 37 -102 34 -180 -7z"/><path d="M3399 4201 c-81 -11 -186 -46 -249 -83 l-55 -31 55 -11 c110 -22 196 -97 255 -222 15 -31 28 -54 30 -52 2 2 -2 34 -10 70 -23 112 -75 192 -148 230 l-41 21 45 18 c125 48 317 41 433 -18 l29 -15 -39 -17 c-41 -19 -93 -72 -119 -121 -16 -32 -45 -143 -45 -175 1 -11 19 15 41 57 69 130 169 208 270 208 l34 0 -25 21 c-38 31 -178 95 -235 107 -74 16 -163 21 -226 13z"/><path d="M1060 4147 c-72 -21 -122 -49 -166 -93 -113 -112 -96 -299 39 -420 95 -85 204 -119 356 -111 148 7 268 62 338 155 28 37 33 52 33 96 0 131 -153 296 -330 356 -80 27 -207 35 -270 17z m112 -113 c41 -21 96 -82 109 -121 63 -191 -181 -332 -339 -197 -153 130 -44 361 158 337 25 -3 57 -11 72 -19z"/><path d="M949 3967 c-44 -30 -61 -63 -55 -111 13 -110 167 -152 240 -65 92 109 -64 258 -185 176z m110 -52 c19 -18 17 -62 -4 -85 -26 -29 -69 -26 -94 6 -26 33 -27 56 -3 76 33 30 71 31 101 3z"/><path d="M5633 4065 c-220 -48 -405 -236 -373 -380 19 -84 119 -179 243 -228 235 -94 495 -41 611 125 33 49 39 66 43 125 6 90 -21 163 -87 236 -59 65 -128 103 -217 122 -83 18 -138 18 -220 0z m318 -127 c83 -24 159 -119 159 -198 0 -124 -146 -230 -276 -201 -165 37 -235 210 -132 327 63 72 159 100 249 72z"/><path d="M5871 3853 c-43 -21 -71 -67 -71 -117 0 -31 7 -45 38 -76 48 -48 95 -59 157 -35 55 20 90 66 90 116 0 98 -117 159 -214 112z m133 -64 c48 -38 24 -109 -37 -109 -38 0 -67 25 -67 59 0 31 8 44 35 59 28 16 39 15 69 -9z"/><path d="M454 3986 c-17 -8 -44 -30 -59 -50 -77 -101 -6 -249 120 -249 84 0 146 59 153 145 4 58 -17 102 -69 141 -34 25 -105 31 -145 13z"/><path d="M2970 3984 c-39 -17 -32 -26 30 -39 70 -14 168 -75 235 -146 36 -38 65 -67 65 -64 0 22 -70 137 -108 178 -75 80 -147 104 -222 71z"/><path d="M3808 3961 c-48 -31 -111 -107 -147 -178 -11 -23 -21 -44 -21 -46 0 -2 32 26 70 64 76 74 162 123 251 143 l54 12 -32 17 c-51 27 -121 22 -175 -12z"/><path d="M6430 3888 c-60 -31 -90 -77 -90 -140 0 -57 17 -96 60 -131 85 -72 218 -24 249 90 27 95 -58 203 -159 203 -9 0 -36 -10 -60 -22z"/><path d="M2895 3778 c-44 -10 -79 -38 -102 -82 -14 -27 -14 -28 3 -21 77 32 103 37 194 33 73 -3 110 -10 158 -30 69 -29 68 -17 -4 33 -83 57 -179 83 -249 67z"/><path d="M1885 3747 c-42 -20 -59 -43 -59 -85 0 -28 7 -41 37 -67 66 -57 127 -70 337 -70 118 0 210 5 254 14 l69 14 -24 18 c-52 39 -201 110 -304 145 -126 42 -257 55 -310 31z"/><path d="M3948 3750 c-44 -11 -142 -60 -178 -89 -30 -25 -25 -26 31 -5 106 37 251 35 331 -5 23 -11 44 -19 46 -17 9 9 -31 67 -62 91 -38 29 -109 40 -168 25z"/><path d="M4855 3725 c-88 -19 -228 -71 -327 -121 -87 -44 -106 -58 -89 -68 24 -15 220 -37 333 -37 193 -1 310 31 349 95 36 59 16 109 -54 135 -38 15 -138 13 -212 -4z"/><path d="M3430 3720 c-62 -11 -91 -23 -129 -56 -67 -56 -84 -135 -57 -256 8 -35 16 -96 18 -135 1 -40 6 -73 10 -73 4 0 8 4 8 10 0 18 61 78 112 112 l52 33 -36 6 c-66 10 -103 63 -95 135 16 145 205 183 269 54 38 -74 20 -125 -88 -261 -130 -163 -224 -331 -419 -754 -201 -435 -275 -617 -328 -805 -28 -101 -32 -130 -31 -235 0 -105 4 -130 28 -200 79 -229 270 -404 517 -474 l64 -18 9 -72 c4 -40 5 -93 1 -119 -13 -90 -92 -133 -212 -117 l-48 7 29 -21 c17 -11 47 -23 68 -26 21 -4 38 -8 38 -10 0 -2 -16 -19 -36 -39 -20 -20 -34 -39 -31 -42 3 -3 28 6 56 20 28 14 52 26 54 26 3 0 3 -21 0 -47 -4 -52 -6 -53 42 20 28 42 36 42 65 -1 l25 -37 3 47 3 46 87 -1 c48 -1 94 1 102 3 12 4 16 -7 20 -45 l5 -50 28 43 28 43 18 -23 c10 -13 26 -38 35 -55 23 -45 30 -41 24 12 -3 25 -4 45 -1 45 2 0 26 -11 53 -25 71 -36 80 -31 32 18 l-42 43 47 13 c27 6 57 19 68 27 19 15 16 15 -33 9 -74 -10 -145 9 -177 47 -23 28 -25 36 -25 143 l0 114 43 11 c150 38 275 108 384 217 66 66 90 99 127 175 78 156 93 287 56 469 -51 249 -220 605 -457 963 -122 183 -147 235 -164 329 -15 88 0 189 46 328 51 150 60 208 41 273 -34 115 -163 181 -306 156z m160 -3047 c0 -93 -4 -127 -19 -159 -35 -78 -116 -80 -153 -4 -14 28 -18 61 -18 158 l0 122 95 0 95 0 0 -117z"/><path d="M2952 3569 c-58 -11 -119 -47 -142 -84 -17 -28 -38 -105 -28 -105 3 0 24 18 47 40 74 71 200 120 305 120 69 0 47 16 -41 29 -80 12 -81 12 -141 0z"/><path d="M460 3554 c-103 -44 -160 -168 -127 -275 50 -165 245 -223 369 -111 53 48 78 102 78 172 0 94 -57 179 -142 214 -47 20 -132 20 -178 0z"/><path d="M3850 3529 c-79 -14 -80 -25 -3 -33 122 -11 214 -49 289 -118 l44 -41 -6 34 c-19 100 -87 152 -209 163 -33 2 -85 0 -115 -5z"/><path d="M3370 3510 c-41 -41 -10 -110 48 -110 36 0 62 28 62 67 0 57 -69 84 -110 43z"/><path d="M6367 3466 c-96 -36 -159 -126 -160 -230 -2 -214 248 -322 398 -171 117 117 88 311 -59 387 -50 26 -130 32 -179 14z"/><path d="M3118 3424 c-111 -26 -202 -90 -228 -159 -11 -30 -5 -115 8 -115 4 0 16 21 26 46 29 70 117 154 209 199 42 21 77 40 77 42 0 6 -35 1 -92 -13z"/><path d="M1070 3390 c-96 -5 -200 -12 -230 -17 l-55 -8 95 -6 c312 -23 1584 -21 1480 2 -111 24 -991 44 -1290 29z"/><path d="M3826 3366 c113 -44 211 -123 247 -197 l16 -33 6 27 c28 112 -90 216 -255 224 l-75 4 61 -25z"/><path d="M4531 3336 c8 -8 397 -49 689 -71 226 -18 999 -31 940 -16 -52 14 -477 49 -790 66 -323 18 -848 31 -839 21z"/><path d="M1125 3238 c-122 -23 -237 -107 -283 -207 -45 -98 -17 -212 75 -304 164 -164 449 -147 638 37 92 91 129 201 91 274 -24 46 -113 122 -180 153 -111 52 -230 68 -341 47z m50 -147 c52 -23 101 -80 115 -131 20 -73 -18 -159 -91 -207 -55 -36 -152 -40 -214 -7 -49 26 -100 90 -109 138 -21 113 83 226 209 226 28 0 68 -9 90 -19z"/><path d="M959 3007 c-58 -39 -74 -98 -44 -157 45 -87 198 -78 241 14 24 48 12 97 -32 135 -45 40 -113 43 -165 8z m103 -54 c40 -36 10 -103 -45 -103 -60 0 -88 59 -47 100 24 24 67 26 92 3z"/><path d="M2065 3190 c-101 -10 -186 -42 -220 -81 -40 -48 -28 -103 30 -135 48 -26 174 -15 295 25 99 34 320 138 320 151 0 26 -291 53 -425 40z"/><path d="M4485 3141 c-30 -7 -29 -8 50 -59 287 -187 558 -247 604 -133 34 82 -63 152 -256 186 -88 15 -340 19 -398 6z"/><path d="M5492 3028 c-75 -25 -146 -84 -162 -134 -27 -82 21 -211 118 -316 178 -192 435 -230 570 -84 126 137 75 369 -106 485 -115 73 -288 93 -420 49z m423 -177 c199 -91 150 -364 -64 -364 -111 0 -191 74 -199 182 -5 70 15 121 62 155 64 48 135 57 201 27z"/><path d="M5853 2773 c-30 -6 -71 -46 -79 -77 -19 -76 41 -156 117 -156 100 0 158 85 115 169 -26 48 -93 77 -153 64z m95 -79 c24 -17 30 -62 10 -82 -31 -31 -108 -2 -108 41 0 49 55 72 98 41z"/><path d="M458 2980 c-153 -47 -190 -234 -67 -333 88 -69 222 -37 276 67 23 45 21 123 -5 173 -36 68 -137 115 -204 93z"/><path d="M2295 2891 c-403 -138 -816 -312 -1227 -517 -60 -30 -108 -56 -108 -59 0 -26 1459 580 1504 625 14 14 21 16 -169 -49z"/><path d="M4535 2892 c42 -26 403 -215 695 -365 230 -118 611 -298 691 -327 36 -13 36 -13 27 -54 -32 -143 82 -286 227 -286 77 0 130 24 181 83 171 194 -38 482 -271 373 -47 -21 -115 -85 -115 -106 0 -6 -5 -10 -11 -10 -6 0 -106 54 -222 120 -344 196 -882 461 -1129 556 -98 38 -117 42 -73 16z"/><path d="M2530 2774 c-277 -73 -499 -195 -530 -290 -15 -44 0 -86 36 -103 82 -37 209 26 378 189 80 77 186 199 186 214 0 8 -4 7 -70 -10z"/><path d="M4385 2723 c64 -99 255 -298 349 -362 118 -82 226 -70 226 24 0 99 -179 228 -450 322 -47 17 -98 33 -114 37 l-29 7 18 -28z"/><path d="M2600 2533 c-317 -242 -661 -544 -997 -874 l-202 -199 -36 25 c-127 86 -310 5 -331 -145 -17 -127 89 -250 216 -250 158 0 263 182 184 319 -20 36 -22 47 -12 56 7 6 92 76 188 155 96 79 234 196 305 259 269 239 738 680 725 681 -3 0 -21 -12 -40 -27z"/><path d="M4380 2495 c0 -17 475 -530 685 -740 88 -88 223 -216 300 -285 l140 -125 0 -76 c0 -70 3 -81 30 -120 99 -140 313 -97 355 72 30 119 -63 239 -185 239 -62 0 -111 -22 -155 -70 l-37 -40 -214 232 c-323 352 -919 944 -919 913z"/><path d="M635 2426 c-60 -28 -87 -56 -114 -116 -51 -113 -1 -248 112 -305 199 -99 409 116 307 315 -60 115 -190 161 -305 106z"/><path d="M1458 2425 c-263 -66 -423 -312 -323 -494 68 -123 210 -188 353 -162 212 39 403 257 402 460 -1 133 -92 202 -275 207 -64 2 -120 -2 -157 -11z m-2 -190 c84 -25 137 -95 137 -180 0 -183 -218 -288 -357 -173 -47 39 -66 81 -66 150 0 96 59 174 154 204 54 17 73 17 132 -1z"/><path d="M1280 2132 c-97 -48 -108 -191 -18 -238 40 -20 115 -15 151 12 40 28 70 96 62 136 -11 47 -31 74 -70 92 -43 21 -82 20 -125 -2z m93 -80 c22 -19 22 -70 0 -94 -22 -25 -71 -23 -100 4 -27 25 -29 45 -7 76 29 42 69 47 107 14z"/><path d="M2719 2384 c-191 -128 -396 -351 -415 -449 -16 -87 56 -141 135 -101 32 17 94 83 138 146 61 90 214 422 200 436 -2 3 -28 -12 -58 -32z"/><path d="M4230 2337 c0 -38 68 -215 132 -346 58 -118 81 -154 133 -207 54 -55 68 -64 99 -64 60 0 95 52 82 124 -15 80 -150 255 -301 388 -116 103 -145 124 -145 105z"/><path d="M5156 2296 c-112 -42 -141 -150 -85 -323 41 -125 143 -245 257 -300 47 -22 71 -27 132 -27 107 0 179 43 225 135 91 179 -21 404 -245 495 -81 33 -223 43 -284 20z m405 -241 c14 -8 40 -30 57 -49 105 -119 28 -296 -129 -296 -149 0 -243 184 -152 298 52 65 150 85 224 47z"/><path d="M5474 1970 c-34 -13 -64 -59 -64 -97 0 -72 52 -123 126 -123 49 0 104 53 104 102 0 83 -92 148 -166 118z m104 -82 c15 -13 16 -60 0 -76 -29 -29 -98 -1 -98 40 0 10 9 27 21 39 20 20 48 19 77 -3z"/><path d="M2842 2103 c-100 -185 -154 -293 -254 -508 -120 -256 -294 -685 -279 -685 9 0 274 539 372 755 94 210 249 578 245 583 -2 2 -40 -63 -84 -145z"/><path d="M4083 2220 c16 -47 217 -500 284 -640 82 -169 311 -605 344 -651 18 -26 18 -26 -17 -60 -40 -38 -58 -93 -48 -147 9 -51 78 -118 132 -127 104 -17 202 64 202 168 0 46 -39 108 -85 135 -34 20 -49 22 -101 17 l-62 -5 -32 77 c-67 161 -233 518 -336 724 -134 269 -305 577 -281 509z"/><path d="M2030 1705 c-104 -29 -200 -91 -264 -169 -117 -143 -129 -339 -27 -443 52 -55 103 -76 188 -81 61 -4 80 0 128 22 79 36 127 77 174 147 95 143 108 331 30 454 -48 76 -126 100 -229 70z m-2 -304 c68 -48 92 -153 53 -229 -93 -181 -341 -129 -341 72 0 84 34 136 110 171 50 22 137 15 178 -14z"/><path d="M1838 1314 c-36 -19 -58 -63 -58 -115 0 -33 6 -47 34 -75 75 -75 186 -16 186 98 -1 87 -84 135 -162 92z m62 -64 c48 -25 43 -94 -7 -106 -54 -14 -87 68 -41 100 27 19 24 19 48 6z"/><path d="M4816 1580 c-106 -34 -157 -210 -106 -371 38 -124 144 -249 236 -279 20 -7 64 -10 99 -8 76 5 134 40 177 108 39 61 51 113 45 193 -9 133 -105 264 -240 327 -68 32 -162 46 -211 30z m327 -293 c68 -52 88 -155 44 -231 -58 -104 -206 -108 -274 -7 -59 87 -32 204 57 253 49 27 127 20 173 -15z"/><path d="M5003 1196 c-24 -21 -28 -31 -28 -80 0 -47 4 -60 28 -83 56 -57 158 -26 173 52 18 99 -99 174 -173 111z m111 -62 c33 -32 14 -84 -30 -84 -23 0 -54 33 -54 57 0 18 29 43 50 43 10 0 26 -7 34 -16z"/><path d="M1690 903 c-31 -12 -71 -58 -80 -93 -32 -118 100 -214 201 -147 75 50 86 137 25 204 -27 30 -40 36 -82 39 -27 2 -56 1 -64 -3z"/><path d="M5233 903 c-34 -7 -80 -55 -91 -96 -30 -106 79 -199 175 -150 53 28 76 64 76 117 0 87 -74 147 -160 129z"/><path d="M2215 888 c-64 -22 -115 -91 -115 -154 0 -128 138 -212 250 -152 97 52 120 178 47 256 -50 54 -118 72 -182 50z"/></g><text x="0" y="715" fill="#000000" font-size="5px" font-weight="bold" font-family="'Helvetica Neue', Helvetica, Arial-Unicode, Arial, Sans-serif">Created by 자 Okja 옥</text><text x="0" y="720" fill="#000000" font-size="5px" font-weight="bold" font-family="'Helvetica Neue', Helvetica, Arial-Unicode, Arial, Sans-serif">from the Noun Project</text></svg>